<?xml version="1.0" encoding="UTF-8"?>
<svg xmlns="http://www.w3.org/2000/svg" width="800" height="520" viewBox="0 0 800 520" preserveAspectRatio="xMidYMid meet">
  <defs>
    <linearGradient id="g1" x1="0" x2="1">
      <stop offset="0" stop-color="#ffecd2"/>
      <stop offset="1" stop-color="#fcb69f"/>
    </linearGradient>
  </defs>
  <rect width="100%" height="100%" rx="24" fill="url(#g1)"/>
  <g transform="translate(60,60)" fill="none" stroke="#fff" stroke-width="2">
    <rect x="0" y="0" width="360" height="200" rx="12" fill="#ffffff1a"/>
    <g transform="translate(16,16)" fill="#fff">
      <circle cx="40" cy="40" r="36" fill="#fff3" />
      <rect x="96" y="10" width="220" height="18" rx="9" fill="#fff3" />
      <rect x="96" y="36" width="140" height="12" rx="6" fill="#fff3" />
    </g>
  </g>
  <g transform="translate(420,100)">
    <g fill="#fff">
      <rect x="0" y="0" width="220" height="60" rx="8" fill="#fff3" />
      <rect x="0" y="76" width="220" height="64" rx="8" fill="#fff3" />
    </g>
    <g transform="translate(20,10)" fill="#fff">
      <path d="M40 12c0 8-10 24-10 24s-10-16-10-24a10 10 0 0 1 20 0z" fill="#fff6"/>
      <rect x="90" y="6" width="90" height="18" rx="8" fill="#fff6"/>
    </g>
  </g>
  <g transform="translate(100,320)" fill="#fff">
    <text x="0" y="0" font-size="28" font-family="Montserrat, sans-serif" fill="#fff">Comida callejera</text>
    <text x="0" y="30" font-size="18" fill="#fff">Hecha con ingredientes locales</text>
  </g>
</svg>
